pedal_clip_forces_x_-0.1_y_-0.04.mot
version=1
nRows=125
nColumns=4
inDegrees=yes
endheader
time	PedalClip_calcn_r_Fx	PedalClip_calcn_r_Fy	PedalClip_calcn_r_Fz
0.39391864	-176.592408817195	437.639835704189	0
0.39420848	-175.999298024165	435.803998783532	0
0.39423746	-175.408115898284	433.973236392266	0
0.39430484	-174.819025940555	432.147552290059	0
0.39442085	-174.232116743819	430.326495189401	0
0.39480878	-173.647509846362	428.509787653408	0
0.39496538	-173.06529220699	426.69725578969	0
0.39525502	-172.485434443869	424.888709943374	0
0.39528398	-171.907849345107	423.084067319095	0
0.3953523	-171.332441840869	421.283317468648	0
0.39547063	-170.759072474655	419.486424224875	0
0.39588176	-170.187628054881	417.693200861417	0
0.39603513	-169.617979897351	415.903064703281	0
0.39632813	-169.050066610253	414.115343416131	0
0.39635743	-168.483971341887	412.329694219719	0
0.39642364	-167.919859071741	410.545947735226	0
0.39653176	-167.358067550765	408.764243279882	0
0.39683303	-166.799057185325	406.985037867428	0
0.39706071	-166.243353623208	405.209549149838	0
0.39736245	-165.691653696332	403.439747265433	0
0.39774414	-165.144312718676	401.677584364839	0
0.39778231	-164.601131635017	399.924627068355	0
0.39785627	-164.061729522021	398.181182413765	0
0.39813613	-163.525646265008	396.44623376263	0
0.39843656	-162.992551097126	394.719157755509	0
0.3984666	-162.462155724935	392.999126826176	0
0.39849664	-161.934254172886	391.285055605341	0
0.39864686	-161.408910679271	389.576737784263	0
0.39883402	-160.886178882011	387.874213001045	0
0.39921303	-160.366067295432	386.177496850132	0
0.39925093	-159.84859379755	384.486646447263	0
0.39930959	-159.333847581445	382.801899818416	0
0.39960293	-158.821863078754	381.123401002561	0
0.39984694	-158.312654993311	379.451328560041	0
0.39990439	-157.806310627485	377.786308991304	0
0.40001036	-157.302842768726	376.128685260251	0
0.40017658	-156.802201732479	374.478411361662	0
0.40041823	-156.30434375339	372.835513241917	0
0.40073901	-155.809341964602	371.200818202825	0
0.40077108	-155.31720965683	369.574426404839	0
0.40080316	-154.827835813191	367.955609716738	0
0.40096355	-154.341031975993	366.343188694219	0
0.40116735	-153.85658213228	364.73586473298	0
0.4015241	-153.374283001065	363.132462780558	0
0.40155978	-152.893979475281	361.532202498309	0
0.40160743	-152.415669082925	359.934912407134	0
0.4018457	-151.939420625547	358.340270212075	0
0.40221602	-151.465275445728	356.747819063419	0
0.40225305	-150.993028526606	355.157100596465	0
0.40230814	-150.522349086893	353.567716397477	0
0.4025836	-150.05290789822	351.979348239545	0
0.40289854	-149.584455973528	350.391771740265	0
0.40293004	-149.116829489528	348.804897003761	0
0.40296153	-148.65000241729	347.218863151382	0
0.403119	-148.184077971077	345.634089161417	0
0.40333827	-147.719022204561	344.050794035739	0
0.40368161	-147.254714428395	342.468686910885	0
0.40371595	-146.791008235246	340.887235415248	0
0.40375938	-146.327785304338	339.305916971167	0
0.40397655	-145.865006813046	337.724540199223	0
0.40451528	-145.40268341817	336.143342016239	0
0.40460359	-144.940711327776	334.56228422588	0
0.40493718	-144.478909670254	332.980982896768	0
0.40522816	-144.017116299749	331.399190797728	0
0.40525726	-143.55525739505	329.816954516481	0
0.40528636	-143.093420520082	328.234646923832	0
0.40543185	-142.631802319466	326.652834806644	0
0.40563896	-142.170505754896	325.071564272624	0
0.40600144	-141.709605082919	323.490422392914	0
0.40603768	-141.249238161196	321.90931951164	0
0.40608593	-140.789549095131	320.328441695443	0
0.40632715	-140.330675763991	318.748095353776	0
0.40671854	-139.872699557369	317.168355724341	0
0.40675768	-139.415675414701	315.589195415072	0
0.4068248	-138.959634429271	314.010553380589	0
0.40716041	-138.504559875009	312.432331148567	0
0.40737609	-138.050420669873	310.85438076194	0
0.4076643	-137.597198537341	309.276605013435	0
0.40805171	-137.144899218712	307.699034237036	0
0.40809045	-136.693544623742	306.121870961232	0
0.40815614	-136.243126215916	304.545442176185	0
0.40848459	-135.793554307839	302.969998109124	0
0.40870238	-135.34483037728	301.395676169145	0
0.40899709	-134.897038412794	299.822868656312	0
0.4093375	-134.450216648603	298.251964011584	0
0.40937154	-134.004365170811	296.682798946253	0
0.40941299	-133.559524213252	295.114911766543	0
0.40962024	-133.115939450377	293.548566274117	0
0.40996627	-132.674110372494	291.985729870033	0
0.4101622	-132.23457364143	290.429158990626	0
0.41047659	-131.797704651494	288.880929661427	0
0.41078848	-131.363712204494	287.34167939148	0
0.41081967	-130.932591595064	285.810792569325	0
0.41085086	-130.504265046971	284.287955798827	0
0.4110068	-130.078700529096	282.772805706957	0
0.41120159	-129.655823843369	281.264791345853	0
0.41160542	-129.235527384906	279.763228398163	0
0.41164581	-128.817671237838	278.267406419746	0
0.4117095	-128.402204042652	276.777018084339	0
0.41202797	-127.989092084717	275.291902621849	0
0.41227214	-127.578277910032	273.811920413824	0
0.4125806	-127.169680039772	272.336926854815	0
0.41275624	-126.763254731902	270.866731574074	0
0.41323788	-126.358965607697	269.401097616842	0
0.41328604	-125.95686090568	267.940200119729	0
0.41334798	-125.557199383446	266.48543070228	0
0.41361635	-125.160420733494	265.039060528335	0
0.41390779	-124.767049403967	263.603551680457	0
0.41423478	-124.377660992454	262.182117768969	0
0.41426748	-123.992622977687	260.777154919215	0
0.41430018	-123.611712034704	259.38777687786	0
0.41446367	-123.234214149456	258.010140036469	0
0.41465083	-122.859303624116	256.639514614257	0
0.41513796	-122.486295201773	255.271718729851	0
0.41518667	-122.114761933373	253.903976530803	0
0.41523538	-121.744466188977	252.53484703637	0
0.41532955	-121.37538054141	251.164967783029	0
0.41577092	-121.007566517223	249.795431955827	0
0.41581506	-120.641030995434	248.426478548343	0
0.41591339	-120.275725445324	247.057978760311	0
0.41608553	-119.911608830881	245.689953984866	0
0.41625274	-119.548681519755	244.322722244685	0
0.41674815	-119.186976541062	242.956811576716	0
0.4168773	-118.826443698422	241.592523792039	0
0.41736817	-118.466999282521	240.229986751114	0
